<svg xmlns="http://www.w3.org/2000/svg" width="383.647" height="414.359" viewBox="0 0 383.647 414.359">
  <g id="Group_15122" data-name="Group 15122" transform="translate(-1126.668 -521.861)">
    <g id="Upload-pana" transform="translate(1186.748 476.858)">
      <g id="freepik--background-complete--inject-42" transform="translate(39.69 45.003)">
        <path id="Path_14377" data-name="Path 14377" d="M425.506,299.5s-5.916-1.972-8.756,11.714a164.914,164.914,0,0,0-3.287,21.212s-.927,2.951-3.1,1.781-5.811-5.186-8.545-3.543-2.879,5.37-.933,10.2,5.811,15.572,6.159,16.545.171,2.544-1.44,1.972-11.773-7.112-14.593-2.1,4.805,17.584,5.607,18.971.657,2.11.079,2.675-3.819-1.972-6.784-3.7-6.718-3.247-8.1-.224.749,13.436,15.02,27.4l7.04,6.034,8.835-2.951c18.517-7.454,24.459-16.269,24.321-19.6s-4.161-3.366-7.572-2.879-7.336,1.591-7.684.835-.184-1.466,1.091-2.445,13.114-9.689,12.417-15.395-12.588-3.53-14.29-3.622-1.249-1.63-.572-2.38,8.361-9.2,12-12.949,4.969-7.145,3.024-9.788-6.764-.223-9.2.033-2.189-2.833-2.189-2.833,2.531-7.132,5.088-20.864-3.78-14.152-3.78-14.152" transform="translate(-164.847 1.467)" fill="#ebebeb"/>
        <path id="Path_14378" data-name="Path 14378" d="M415.56,412.915c1.939-10.064,4.733-23.94,7.888-39.263s5.969-29.179,7.96-39.23l2.353-11.9c.276-1.394.493-2.485.657-3.234.079-.362.138-.657.177-.841a2.361,2.361,0,0,1,.072-.283,1.606,1.606,0,0,1-.039.289c-.039.191-.085.486-.145.841-.138.763-.335,1.854-.585,3.247-.513,2.82-1.315,6.9-2.248,11.931-1.939,10.057-4.733,23.934-7.888,39.249s-5.969,29.192-7.96,39.243" transform="translate(-176.533 -4.961)" fill="#e0e0e0"/>
        <path id="Path_14379" data-name="Path 14379" d="M419.91,355.81a2.673,2.673,0,0,1,.394.546c.243.355.572.887.973,1.545.8,1.315,1.847,3.168,2.971,5.226l2.859,5.3.868,1.6a2.466,2.466,0,0,1,.3.6,3.138,3.138,0,0,1-.4-.546c-.237-.355-.565-.887-.96-1.551-.789-1.315-1.814-3.188-2.938-5.259l-2.892-5.259c-.348-.657-.657-1.157-.881-1.6A2.561,2.561,0,0,1,419.91,355.81Z" transform="translate(-178.024 -47.175)" fill="#e0e0e0"/>
        <path id="Path_14380" data-name="Path 14380" d="M434,372.924c-.046-.079,3.668-2.419,8.3-5.259s8.414-5.035,8.46-4.956-3.668,2.412-8.3,5.259S434,373,434,372.924Z" transform="translate(-182.852 -49.063)" fill="#e0e0e0"/>
        <path id="Path_14381" data-name="Path 14381" d="M425,410.969a2.923,2.923,0,0,1,.657-.217l1.795-.486c1.512-.414,3.6-.993,5.916-1.709s4.332-1.433,5.811-1.972l1.749-.657a3.136,3.136,0,0,1,.657-.2,2.629,2.629,0,0,1-.611.309c-.4.184-.986.434-1.716.723-1.459.585-3.5,1.315-5.8,2.057s-4.4,1.262-5.916,1.624c-.763.177-1.387.309-1.821.388a2.84,2.84,0,0,1-.723.138Z" transform="translate(-179.768 -34.968)" fill="#e0e0e0"/>
        <path id="Path_14382" data-name="Path 14382" d="M407.839,396.2a2.7,2.7,0,0,1,.486.4c.3.276.736.657,1.256,1.177,1.052,1.006,2.491,2.406,4.062,3.944s2.978,2.984,3.99,4.029c.506.519.907.947,1.183,1.249s.421.473.4.486a2.63,2.63,0,0,1-.486-.4c-.3-.27-.73-.657-1.256-1.177-1.052-1-2.485-2.406-4.056-3.944s-2.984-2.991-4-4.036l-1.183-1.242C407.944,396.391,407.819,396.22,407.839,396.2Z" transform="translate(-173.887 -31.703)" fill="#e0e0e0"/>
        <path id="Path_14383" data-name="Path 14383" d="M396,426.5a3.568,3.568,0,0,1,.657.519l1.61,1.505c1.354,1.275,3.208,3.057,5.259,5.042s3.865,3.786,5.18,5.107l1.538,1.578a4.305,4.305,0,0,1,.539.6,3.888,3.888,0,0,1-.624-.519l-1.67-1.5c-1.354-1.282-3.208-3.063-5.259-5.048s-3.865-3.786-5.173-5.107l-1.545-1.578a4.306,4.306,0,0,1-.513-.6Z" transform="translate(-169.831 -42.086)" fill="#e0e0e0"/>
        <path id="Path_14384" data-name="Path 14384" d="M418,443.949a4.6,4.6,0,0,1,.815-.3l2.255-.7c1.906-.592,4.529-1.42,7.4-2.412s5.456-1.972,7.316-2.629L438,437.08a5.02,5.02,0,0,1,.822-.27,4.077,4.077,0,0,1-.776.388c-.506.23-1.249.546-2.169.927-1.847.763-4.417,1.755-7.3,2.748s-5.522,1.788-7.441,2.327c-.96.263-1.742.473-2.288.6a4.268,4.268,0,0,1-.848.151Z" transform="translate(-177.369 -45.619)" fill="#e0e0e0"/>
        <path id="Path_14385" data-name="Path 14385" d="M201.237,97.754l-24.6-11.74a3.412,3.412,0,0,1-1.6-4.549l16.249-34.043a3.412,3.412,0,0,1,4.549-1.6l15.6,7.441,6.133,18.2-11.773,24.7A3.412,3.412,0,0,1,201.237,97.754Z" transform="translate(-93.999 -45.489)" fill="#ebebeb"/>
        <path id="Path_14386" data-name="Path 14386" d="M228.02,57.33l-4.6,9.584a3.168,3.168,0,0,0,1.5,4.227l9.2,4.4Z" transform="translate(-110.587 -49.547)" fill="#f5f5f5"/>
        <path id="Path_14387" data-name="Path 14387" d="M223.028,73.28a3.53,3.53,0,0,0,1.052,4.292c.085.079.177.145.27.217,1.1.789,8.348,5.975,8.434,5.791l1.229-2.6-9.2-4.4S222.535,75.436,223.028,73.28Z" transform="translate(-110.446 -55.012)" fill="#e0e0e0"/>
        <path id="Path_14388" data-name="Path 14388" d="M214.838,66.981a42.2,42.2,0,0,1-5.8-2.5,38.93,38.93,0,0,1-5.581-2.938,41.234,41.234,0,0,1,5.8,2.5A38.931,38.931,0,0,1,214.838,66.981Z" transform="translate(-103.854 -50.988)" fill="#fafafa"/>
        <path id="Path_14389" data-name="Path 14389" d="M218.237,78.735c-.059.118-4.3-1.781-9.466-4.253s-9.321-4.6-9.262-4.693,4.3,1.781,9.472,4.253S218.3,78.61,218.237,78.735Z" transform="translate(-102.5 -53.814)" fill="#fafafa"/>
        <path id="Path_14390" data-name="Path 14390" d="M216.65,86.419c-.053.125-4.674-1.972-10.314-4.647s-10.156-4.976-10.1-5.094,4.674,1.972,10.314,4.647S216.709,86.3,216.65,86.419Z" transform="translate(-101.38 -56.175)" fill="#fafafa"/>
        <path id="Path_14391" data-name="Path 14391" d="M213.557,92.916c-.059.118-4.68-1.972-10.314-4.654s-10.162-4.969-10.1-5.094,4.674,1.972,10.314,4.647S213.609,92.791,213.557,92.916Z" transform="translate(-100.317 -58.398)" fill="#fafafa"/>
        <path id="Path_14392" data-name="Path 14392" d="M210.443,99.406c-.059.125-4.68-1.972-10.314-4.654S190,89.782,190,89.657s4.674,1.972,10.314,4.654S210.5,99.281,210.443,99.406Z" transform="translate(-99.242 -60.622)" fill="#fafafa"/>
        <path id="Path_14393" data-name="Path 14393" d="M207.357,105.919c-.059.125-4.68-1.972-10.314-4.647s-10.162-4.976-10.1-5.094,4.674,1.972,10.314,4.647S207.416,105.781,207.357,105.919Z" transform="translate(-98.193 -62.857)" fill="#fafafa"/>
        <path id="Path_14394" data-name="Path 14394" d="M399.366,375.726H349.757s-.585-11.674,9.722-12.457c0,0,1.716-9.86,13.232-9.919,13.8-.066,13.982,11.964,13.982,11.964s11.313-1.071,12.673,10.412" transform="translate(-153.983 -44.066)" fill="#fafafa"/>
        <path id="Path_14395" data-name="Path 14395" d="M61.461,360.63h0l-9.531,8.637h5.758v12.226h7.553V369.267H71Z" transform="translate(-51.93 -44.681)" fill="#ebebeb"/>
      </g>
      <g id="freepik--Floor--inject-42" transform="translate(16.21 454.501)">
        <path id="Path_14399" data-name="Path 14399" d="M323.567,464.831c0,.1-68.81.171-153.672.171S16.21,464.93,16.21,464.831s68.8-.171,153.685-.171S323.567,464.739,323.567,464.831Z" transform="translate(-16.21 -464.66)" fill="#263238"/>
      </g>
      <g id="freepik--Plant--inject-42" transform="translate(265.023 413.817)">
        <path id="Path_14400" data-name="Path 14400" d="M411.887,419.42c-1.124,1.6-3.287,1.071-4.319.092a7.965,7.965,0,0,1-1.834-3.753c-.887-3.089-1.788-6.337-1.124-9.485a5.291,5.291,0,0,1,1.21-2.577,2.741,2.741,0,0,1,2.629-.868,4.008,4.008,0,0,1,2.281,2.393,22.652,22.652,0,0,1,2.235,9.7,7.842,7.842,0,0,1-1.058,4.5" transform="translate(-398.036 -402.768)" fill="#004d9f"/>
        <g id="Group_10300" data-name="Group 10300" transform="translate(6.345)" opacity="0.2">
          <path id="Path_14401" data-name="Path 14401" d="M411.887,419.42c-1.124,1.6-3.287,1.071-4.319.092a7.965,7.965,0,0,1-1.834-3.753c-.887-3.089-1.788-6.337-1.124-9.485a5.291,5.291,0,0,1,1.21-2.577,2.741,2.741,0,0,1,2.629-.868,4.008,4.008,0,0,1,2.281,2.393,22.652,22.652,0,0,1,2.235,9.7,7.842,7.842,0,0,1-1.058,4.5" transform="translate(-404.381 -402.768)"/>
        </g>
        <path id="Path_14402" data-name="Path 14402" d="M404.366,439.98a9.709,9.709,0,0,0-6.041-.73,5.022,5.022,0,0,0-2.984,1.315,2.118,2.118,0,0,0,0,2.978,2.853,2.853,0,0,0,1.88.48c1.6,0,3.366-.3,4.641.657.73.546,1.216,1.459,2.084,1.729a2.064,2.064,0,0,0,2.268-1.012,3.523,3.523,0,0,0,.256-2.59,3.977,3.977,0,0,0-2.1-2.827Z" transform="translate(-394.728 -415.204)" fill="#004d9f"/>
        <path id="Path_14403" data-name="Path 14403" d="M419.863,424.417a5.817,5.817,0,0,1-.907-5.37,10.294,10.294,0,0,1,3.181-4.6,17.092,17.092,0,0,1,5.7-3.366,6.028,6.028,0,0,1,2.564-.434,2.7,2.7,0,0,1,2.149,1.315c.6,1.144,0,2.531-.6,3.661a43.642,43.642,0,0,1-3.74,5.7,10.2,10.2,0,0,1-4.121,3.53c-1.709.657-3.484.572-4.391-.611" transform="translate(-402.929 -405.465)" fill="#004d9f"/>
        <path id="Path_14404" data-name="Path 14404" d="M411.541,457.235a3.617,3.617,0,0,1-.1-.73l-.2-1.972a27.271,27.271,0,0,0-.447-2.919,22.167,22.167,0,0,0-1.058-3.444,12.805,12.805,0,0,0-1.762-3.122,6.639,6.639,0,0,0-2.222-1.847,6.4,6.4,0,0,0-1.873-.585,3.708,3.708,0,0,1-.723-.1,2.888,2.888,0,0,1,.736,0,5.719,5.719,0,0,1,1.972.506,6.572,6.572,0,0,1,2.347,1.867,12.1,12.1,0,0,1,1.821,3.181,21.346,21.346,0,0,1,1.058,3.5,26.862,26.862,0,0,1,.388,2.958c.059.841.085,1.525.1,1.972a3.576,3.576,0,0,1-.039.736Z" transform="translate(-397.617 -416.381)" fill="#263238"/>
        <path id="Path_14405" data-name="Path 14405" d="M413.767,445.45a2.157,2.157,0,0,1,0-.335v-.966c0-.841,0-2.057-.046-3.556-.072-3-.329-7.145-.828-11.694s-1.17-8.651-1.781-11.6c-.138-.736-.283-1.4-.421-1.972s-.243-1.085-.348-1.486l-.224-.947a1.039,1.039,0,0,1-.059-.329,1.976,1.976,0,0,1,.118.316l.276.927c.125.4.256.9.4,1.479s.309,1.242.467,1.972a107.959,107.959,0,0,1,1.867,11.6c.5,4.562.73,8.716.749,11.72,0,1.505,0,2.721-.053,3.563q-.039.592-.059.966a1.151,1.151,0,0,1-.059.335Z" transform="translate(-399.982 -406.127)" fill="#263238"/>
        <path id="Path_14406" data-name="Path 14406" d="M415.661,438.718a7.486,7.486,0,0,1,0-1.012c.039-.657.132-1.591.309-2.741a36.717,36.717,0,0,1,.894-3.99,35.278,35.278,0,0,1,1.67-4.72,25.076,25.076,0,0,1,4.9-7.625,11.832,11.832,0,0,1,1.15-1.071c.177-.151.335-.3.493-.421s.309-.21.447-.309a5.5,5.5,0,0,1,.855-.539,29.445,29.445,0,0,0-2.794,2.485,26.681,26.681,0,0,0-4.772,7.6,36.858,36.858,0,0,0-1.676,4.68c-.44,1.466-.73,2.813-.953,3.944s-.329,2.064-.4,2.708A6.573,6.573,0,0,1,415.661,438.718Z" transform="translate(-401.895 -407.401)" fill="#263238"/>
      </g>
      <g id="freepik--Files--inject-42" transform="translate(63.206 61.07)">
        <rect id="Rectangle_945" data-name="Rectangle 945" width="42.043" height="54.587" transform="translate(133.378 41.536) rotate(-79.98)" fill="#ebebeb"/>
        <path id="Path_14407" data-name="Path 14407" d="M334.081,53.371l-.256-.039-.749-.105-2.813-.486-10.609-1.834-37.4-6.573.158-.105c-2.176,12.318-4.667,26.451-7.3,41.412h0l-.125-.171,51.785,9.2-.151.105c2.235-12.489,4.082-22.8,5.377-30.02.657-3.609,1.163-6.442,1.512-8.381l.408-2.215c.092-.5.151-.763.151-.763l-.118.743c-.085.5-.21,1.236-.375,2.189-.335,1.939-.822,4.766-1.446,8.374-1.262,7.231-3.076,17.61-5.259,30.113v.125h-.125l-51.818-9.176h-.151v-.151h0c2.629-14.948,5.154-29.074,7.336-41.412V44.07h.131l37.468,6.692,10.563,1.9,2.787.513.71.131Z" transform="translate(-141.558 -44.07)" fill="#263238"/>
        <path id="Path_14413" data-name="Path 14413" d="M418.757,227.367a4.71,4.71,0,0,0,.736.105,3.7,3.7,0,0,0,2.031-.486,3.635,3.635,0,0,0,1.111-1.012,3.287,3.287,0,0,0,.414-.762c.105-.276.191-.592.276-.907l1.249-4.319.723-2.511c.125-.44.256-.887.388-1.315a6.248,6.248,0,0,0,.3-1.374,4,4,0,0,0-.855-2.741,3.9,3.9,0,0,0-1.157-.986,6.192,6.192,0,0,0-1.492-.552l-13.745-4a3.859,3.859,0,0,0-3.339.966,3.688,3.688,0,0,0-.966,1.459c-.2.552-.348,1.157-.526,1.722q-.986,3.451-1.972,6.633c-.151.526-.342,1.058-.44,1.551a3.656,3.656,0,0,0,.053,1.512,3.6,3.6,0,0,0,1.722,2.261,5.693,5.693,0,0,0,1.315.493l1.315.4,2.5.743,7.559,2.274,2.044.657.532.177.177.066-.184-.033-.539-.145-2.071-.572-7.54-2.242-2.511-.723-1.315-.388a6.376,6.376,0,0,1-1.38-.506,3.885,3.885,0,0,1-1.867-2.432,3.813,3.813,0,0,1-.066-1.637c.112-.552.289-1.045.434-1.584l1.972-6.639c.177-.578.322-1.144.526-1.742a4.017,4.017,0,0,1,1.052-1.584,4.167,4.167,0,0,1,3.628-1.052c4.917,1.4,9.531,2.787,13.765,4.029a7.08,7.08,0,0,1,1.558.585,4.412,4.412,0,0,1,1.236,1.071,4.3,4.3,0,0,1,.9,2.932,6.3,6.3,0,0,1-.322,1.44c-.131.447-.263.894-.394,1.315-.256.874-.506,1.709-.743,2.511l-1.315,4.306a7.571,7.571,0,0,1-.3.92,3.657,3.657,0,0,1-.44.789,3.72,3.72,0,0,1-1.177,1.032,3.622,3.622,0,0,1-2.1.44,2.7,2.7,0,0,1-.769-.145Z" transform="translate(-184.874 -99.581)" fill="#fafafa"/>
        <path id="Path_14414" data-name="Path 14414" d="M422.821,232.027a1.727,1.727,0,0,1-.151-.289c-.085-.2-.223-.506-.375-.848l-1.315-3.149c-.276-.657-.572-1.4-.887-2.182-.164-.388-.329-.8-.493-1.21l-.256-.657a1.15,1.15,0,0,0-.4-.467,1.1,1.1,0,0,0-1.21,0l-1.223.914-2.629,1.873-1.17.835-.145.105-.092-.158-1.426-2.57-.348-.618a1.748,1.748,0,0,0-.368-.519,1.17,1.17,0,0,0-1.111-.256,2.531,2.531,0,0,0-.539.263l-.546.309-1.039.585-1.86,1.045-2.688,1.486-.736.388a1.508,1.508,0,0,1-.263.118,1.4,1.4,0,0,1,.23-.171c.158-.1.427-.27.71-.44l2.629-1.571,1.841-1.078,1.032-.6.539-.315a2.589,2.589,0,0,1,.6-.3,1.472,1.472,0,0,1,1.394.309,2.045,2.045,0,0,1,.434.592l.348.618c.473.828.966,1.683,1.466,2.564l-.237-.053,1.17-.835,2.629-1.867,1.249-.887a1.4,1.4,0,0,1,2.051.6l.256.657.473,1.223.855,2.2c.5,1.315.907,2.386,1.21,3.188.131.348.23.657.316.874a1.269,1.269,0,0,1,.072.3Z" transform="translate(-185.001 -105.208)" fill="#fafafa"/>
        <path id="Path_14415" data-name="Path 14415" d="M418.923,217.308h.5a2.018,2.018,0,0,0,1.21-.427,1.893,1.893,0,1,0-2.919-.855,2.038,2.038,0,0,0,.789,1.012c.263.171.434.223.421.256a1,1,0,0,1-.486-.145,2.051,2.051,0,0,1-.94-1.039,2.136,2.136,0,0,1,.243-2.057,2.176,2.176,0,0,1,3.944,1.157,2.143,2.143,0,0,1-.907,1.86,1.972,1.972,0,0,1-1.354.362A1,1,0,0,1,418.923,217.308Z" transform="translate(-190.411 -102.005)" fill="#fafafa"/>
        <g id="Group_15120" data-name="Group 15120">
          <g id="Group_15119" data-name="Group 15119" transform="translate(5.836 -73.349)">
            <g id="Group_15118" data-name="Group 15118">
              <path id="Path_14423" data-name="Path 14423" d="M102.36,196.55l2.419,10.517a3.234,3.234,0,0,0,3.878,2.432l10.143-2.327Z" transform="translate(-82.48 -96.32)" fill="#004d9f"/>
              <g id="Group_15117" data-name="Group 15117" transform="translate(2.645)">
                <path id="Path_14422" data-name="Path 14422" d="M112.065,238.551l-27.089,6.218a3.471,3.471,0,0,1-4.168-2.629l-8.6-37.468a3.471,3.471,0,0,1,2.629-4.167l17.183-3.944,16.433,10.655,6.238,27.174a3.471,3.471,0,0,1-2.623,4.161Z" transform="translate(-72.115 -96.323)" fill="#004d9f"/>
                <g id="Group_10306" data-name="Group 10306" transform="translate(19.926 100.237)" opacity="0.3">
                  <path id="Path_14425" data-name="Path 14425" d="M102.36,196.55l2.419,10.517a3.234,3.234,0,0,0,3.878,2.432l10.143-2.327Z" transform="translate(-102.36 -196.55)" fill="#fff"/>
                </g>
              </g>
            </g>
            <path id="Path_14426" data-name="Path 14426" d="M95.9,212.73a41.5,41.5,0,0,1-6.205,1.683,45.081,45.081,0,0,1-6.324,1.2,43.924,43.924,0,0,1,6.212-1.683A42.2,42.2,0,0,1,95.9,212.73Z" transform="translate(-75.973 -101.857)" fill="#fafafa"/>
            <path id="Path_14427" data-name="Path 14427" d="M106.077,218.993c0,.138-4.562,1.315-10.254,2.629s-10.34,2.235-10.373,2.1,4.562-1.315,10.261-2.629A104.142,104.142,0,0,1,106.077,218.993Z" transform="translate(-76.686 -104.005)" fill="#fafafa"/>
            <path id="Path_14428" data-name="Path 14428" d="M109.677,225.914c0,.138-4.976,1.4-11.175,2.827s-11.28,2.485-11.313,2.334,4.976-1.4,11.175-2.82S109.644,225.783,109.677,225.914Z" transform="translate(-77.281 -106.378)" fill="#fafafa"/>
            <path id="Path_14429" data-name="Path 14429" d="M111.284,233.064c0,.138-4.976,1.407-11.175,2.827s-11.267,2.472-11.3,2.34,4.976-1.407,11.175-2.827S111.284,232.933,111.284,233.064Z" transform="translate(-77.836 -108.828)" fill="#fafafa"/>
            <path id="Path_14430" data-name="Path 14430" d="M112.968,240.213c0,.138-4.976,1.407-11.175,2.827s-11.267,2.472-11.293,2.34,4.976-1.4,11.175-2.827S112.935,240.068,112.968,240.213Z" transform="translate(-78.416 -111.277)" fill="#fafafa"/>
            <path id="Path_14431" data-name="Path 14431" d="M114.6,247.374c.033.131-4.976,1.4-11.175,2.82s-11.273,2.472-11.3,2.34,4.976-1.4,11.175-2.827S114.571,247.236,114.6,247.374Z" transform="translate(-78.975 -113.731)" fill="#fafafa"/>
          </g>
          <g id="Group_10305" data-name="Group 10305" transform="translate(30.811 37.919)" opacity="0.2">
            <path id="Path_14424" data-name="Path 14424" d="M106.57,213.592a3.609,3.609,0,0,0,3.563,2.767,3.188,3.188,0,0,0,.355,0c1.374-.066,10.452-.513,10.406-.716l-.657-2.833-10.143,2.327S107.543,215.6,106.57,213.592Z" transform="translate(-106.57 -212.81)"/>
          </g>
        </g>
      </g>
    </g>
    <path id="Path_16216" data-name="Path 16216" d="M45.974.085l-12,12.206a.216.216,0,0,0,0,.313l8.418,8.951A1.448,1.448,0,1,1,40.346,23.6l-8.374-8.919a.228.228,0,0,0-.321,0l-2.04,2.06a8.967,8.967,0,0,1-6.414,2.7,9.164,9.164,0,0,1-6.526-2.774l-1.96-2a.228.228,0,0,0-.321,0l-8.354,8.9a1.448,1.448,0,1,1-2.048-2.048l8.386-8.931a.24.24,0,0,0,0-.313L.377.065A.22.22,0,0,0,0,.221V24.646a3.576,3.576,0,0,0,3.564,3.564H42.8a3.576,3.576,0,0,0,3.564-3.564V.241a.22.22,0,0,0-.385-.156Z" transform="translate(1391.023 551.572) rotate(10)" fill="#004d9f"/>
    <path id="Path_16217" data-name="Path 16217" d="M21.818,20.392a6.069,6.069,0,0,0,4.377-1.8L43.669.8a3.487,3.487,0,0,0-2.2-.8H2.2A3.463,3.463,0,0,0,0,.8L17.477,18.588A6.045,6.045,0,0,0,21.818,20.392Z" transform="translate(1393.037 548.022) rotate(10)" fill="#004d9f"/>
    <g id="undraw_web_browsing_p77h" transform="translate(1126.668 648.662)">
      <path id="Path_16241" data-name="Path 16241" d="M225.794,678.391l.343-.014c-.8-19.871-4.961-32.638-8.311-39.85-3.638-7.83-7.143-11-7.178-11.031l-.228.256c.035.031,3.5,3.169,7.108,10.946C220.859,645.88,225,658.595,225.794,678.391Z" transform="translate(109.934 -416.194)" fill="#f2f2f2"/>
      <path id="Path_16242" data-name="Path 16242" d="M320.336,724.941l.329-.1a53.2,53.2,0,0,0-13.395-22.285l-.23.254A52.844,52.844,0,0,1,320.336,724.941Z" transform="translate(-21.35 -462.703)" fill="#f2f2f2"/>
      <path id="Path_16243" data-name="Path 16243" d="M101.149,712.686l.34-.047a37.353,37.353,0,0,1,3.36-21.833,30.063,30.063,0,0,1,5.3-7.737l-.237-.247a30.439,30.439,0,0,0-5.373,7.833A37.693,37.693,0,0,0,101.149,712.686Z" transform="translate(267.636 -450.473)" fill="#f2f2f2"/>
      <path id="Path_16246" data-name="Path 16246" d="M976.794,678.391l.343-.014c-.8-19.871-4.961-32.638-8.311-39.85-3.638-7.83-7.143-11-7.178-11.031l-.228.256c.035.031,3.5,3.169,7.108,10.946C971.859,645.88,976,658.595,976.794,678.391Z" transform="translate(-926.755 -416.194)" fill="#f2f2f2"/>
      <path id="Path_16247" data-name="Path 16247" d="M1071.34,724.941l.329-.1a53.2,53.2,0,0,0-13.395-22.285l-.23.254A52.779,52.779,0,0,1,1071.34,724.941Z" transform="translate(-1058.045 -462.703)" fill="#f2f2f2"/>
      <path id="Path_16248" data-name="Path 16248" d="M852.149,712.686l.34-.047a37.354,37.354,0,0,1,3.36-21.833,30.064,30.064,0,0,1,5.3-7.737l-.237-.247a30.439,30.439,0,0,0-5.373,7.833A37.694,37.694,0,0,0,852.149,712.686Z" transform="translate(-769.053 -450.473)" fill="#f2f2f2"/>
      <path id="Path_16250" data-name="Path 16250" d="M527.423,535.965c8.9,0,16.7,9.293,21,23.171.3.974.59,1.974.856,2.99A86.6,86.6,0,0,1,551.96,583.9c0,26.431-11.005,47.932-24.537,47.932s-24.536-21.5-24.536-47.932S513.892,535.965,527.423,535.965Zm0,95.1c13.109,0,23.776-21.162,23.776-47.171a86.1,86.1,0,0,0-2.712-21.858q-.377-1.432-.806-2.807c-4.188-13.493-11.7-22.505-20.257-22.505-13.109,0-23.776,21.162-23.776,47.171S514.314,631.068,527.423,631.068Z" transform="translate(-327.147 -359.482)" fill="#3f3d56"/>
      <path id="Path_16251" data-name="Path 16251" d="M569.258,644.54c4.693,0,8.369-12.173,8.369-27.713s-3.676-27.713-8.369-27.713-8.369,12.173-8.369,27.713S564.565,644.54,569.258,644.54Zm0-54.665c4.124,0,7.608,12.343,7.608,26.952s-3.484,26.952-7.608,26.952-7.608-12.342-7.608-26.952S565.134,589.875,569.258,589.875Z" transform="translate(-374.878 -392.413)" fill="#3f3d56"/>
      <ellipse id="Ellipse_14315" data-name="Ellipse 14315" cx="3.233" cy="6.365" rx="3.233" ry="6.365" transform="translate(190.195 218.049)" fill="#cfcce0"/>
      <path id="Path_16252" data-name="Path 16252" d="M565.937,362.616l-52.116-.19v20.532l52.116,2.1Z" transform="translate(-365.471 -224.555)" fill="#3f3d56"/>
      <path id="Path_16253" data-name="Path 16253" d="M443.516,477.792l.759-.041-2.3-41.825h-47.15v.761h46.43Z" transform="translate(-198.541 -270.095)" fill="#3f3d56"/>
      <path id="Path_16254" data-name="Path 16254" d="M326.772,715.257l26.629-4.565-.158-.745-26.629,4.565Z" transform="translate(-81.719 -439.876)" fill="#3f3d56"/>
      <rect id="Rectangle_3505" data-name="Rectangle 3505" width="0.761" height="32.445" transform="translate(207.344 287.559) rotate(-94.708)" fill="#3f3d56"/>
      <path id="Path_16255" data-name="Path 16255" d="M442.889,613.069q.428,1.375.807,2.807l.8.087,24.742,2.75,56.681-5.706-58.964-3.043-23.315,3.009Z" transform="translate(-278.277 -405.332)" fill="#3f3d56"/>
      <path id="Path_16256" data-name="Path 16256" d="M591.215,256.973s8.239-2.943,13.536,8.828a232.106,232.106,0,0,0,13.536,24.717l-4.708,1.177s-1.177-8.239-4.12-9.416l1.177,10.593s-35.31,12.359-51.2-1.177l.589-4.12s-2.354.589-2.354,4.12l-1.766-1.766s1.766-3.531,7.062-8.239c3.476-3.09,4.671-8.969,5.082-12.645a15.3,15.3,0,0,1,3.523-8.333C575.092,256.634,581.505,252.3,591.215,256.973Z" transform="translate(-413.642 -185.366)" fill="#2f2e41"/>
      <path id="Path_16257" data-name="Path 16257" d="M502.4,201.964l3.424-35.759s6.847-19.4-3.424-17.879-4.185,16.358-4.185,16.358l-5.706,37.28Z" transform="translate(-279.301 -119.253)" fill="#ffb9b9"/>
      <path id="Path_16258" data-name="Path 16258" d="M383.071,644.426l3.8,12.934-7.228,6.087-5.326-16.358Z" transform="translate(-133.341 -399.279)" fill="#ffb9b9"/>
      <path id="Path_16259" data-name="Path 16259" d="M516.182,741.465l3.8,13.695-13.314,8.369s-.38-15.6-2.282-18.64Z" transform="translate(-295.744 -486.808)" fill="#ffb9b9"/>
      <path id="Path_16260" data-name="Path 16260" d="M463.963,543.889l1.9,3.8s21.683-9.891,27.39,3.8,18.26,57.062,18.26,57.062l-11.032,4.565-20.162-46.03-46.03-1.141-1.9-25.488Z" transform="translate(-259.883 -362.27)" fill="#2f2e41"/>
      <path id="Path_16261" data-name="Path 16261" d="M536.925,547.258s31.194-6.467,33.476,9.13-1.141,45.269-1.522,46.03,1.522,14.836,1.522,14.836l-13.695,1.9s-8.749-41.465-4.945-52.116l-25.739-1.592a17.678,17.678,0,0,1-16.654-16.455c-.2-3.4.656-6.489,3.591-8.2,9.13-5.326,25.868-5.326,25.868-5.326Z" transform="translate(-348.822 -359.172)" fill="#2f2e41"/>
      <path id="Path_16262" data-name="Path 16262" d="M377.886,743.355s2.663-5.706,6.467-3.043,12.554,8.369,12.554,8.369,13.535,4.766,1.522,7.989c-10.686,2.867-13.314,2.282-13.314,2.282s-8.749,1.522-9.891.761-1.9-12.934-1.9-12.934S378.647,745.638,377.886,743.355Z" transform="translate(-129.297 -485.655)" fill="#004d9f"/>
      <path id="Path_16263" data-name="Path 16263" d="M458.736,774.582s3.8-5.326,6.467-3.043,12.173,8.749,12.173,8.749,15.977,4.565,1.9,8.749-29.672,3.424-30.052,1.9.761-12.554.761-12.554S457.975,778.006,458.736,774.582Z" transform="translate(-239.819 -505.089)" fill="#004d9f"/>
      <ellipse id="Ellipse_14316" data-name="Ellipse 14316" cx="13.695" cy="13.695" rx="13.695" ry="13.695" transform="translate(159.572 81.95)" fill="#ffb9b9"/>
      <path id="Path_16264" data-name="Path 16264" d="M591.411,339.465s.761,15.6,4.565,16.738,14.456,13.695,9.51,17.5-33.476,1.141-33.476,1.141l2.663-19.781s6.087-4.185,1.141-11.412Z" transform="translate(-408.253 -237.733)" fill="#ffb9b9"/>
      <path id="Path_16265" data-name="Path 16265" d="M577.817,381.442l2.663-12.554,8.749-3.424,7.228,16.738s8.179,54.209,5.9,54.969a10.287,10.287,0,0,1-3.994.571s-12.173-3.8-15.977-1.9-23.586,3.424-23.586,3.424-13.695-7.228-12.934-13.695,0-42.606,0-42.606l1.712-16.167,15.01,2.348Z" transform="translate(-394.279 -253.842)" fill="#004d9f"/>
      <path id="Path_16266" data-name="Path 16266" d="M445.321,238.326l.38-2.282,10.651-12.934,6.087-21.683,14.836,5.706-10.652,26.248-15.216,19.4Z" transform="translate(-250.751 -124.801)" fill="#004d9f"/>
      <path id="Path_16267" data-name="Path 16267" d="M623.188,296.139s-4.708-6.474-8.828-7.651-4.708-7.062-4.708-7.062-10.593,11.77-17.067,12.359S592,279.661,592,279.661l11.77-2.943,11.182,1.177,8.828,5.885Z" transform="translate(-431.93 -198.856)" fill="#2f2e41"/>
      <path id="Path_16268" data-name="Path 16268" d="M555.581,460.3l.368-15.61h35.4l1.131,41.856.761-.021-1.151-42.6H555.214l-.012.367-.38,15.977Z" transform="translate(-408.373 -275.052)" fill="#3f3d56"/>
      <path id="Path_16269" data-name="Path 16269" d="M661.34,383.632h.761V354.6l-12.28,3.565.213.731,11.306-3.283Z" transform="translate(-513.37 -219.703)" fill="#3f3d56"/>
      <path id="Path_16270" data-name="Path 16270" d="M674.423,556.965c8.9,0,16.7,9.293,21,23.171.3.974.59,1.974.856,2.99A86.6,86.6,0,0,1,698.96,604.9c0,26.431-11.005,47.932-24.536,47.932s-24.537-21.5-24.537-47.932S660.892,556.965,674.423,556.965Zm0,95.1c13.109,0,23.776-21.162,23.776-47.171a86.11,86.11,0,0,0-2.712-21.858q-.376-1.432-.806-2.807c-4.188-13.493-11.7-22.505-20.257-22.505-13.109,0-23.776,21.162-23.776,47.171S661.314,652.068,674.423,652.068Z" transform="translate(-530.067 -372.494)" fill="#3f3d56"/>
      <path id="Path_16271" data-name="Path 16271" d="M716.258,665.54c4.693,0,8.369-12.173,8.369-27.713s-3.676-27.713-8.369-27.713-8.369,12.173-8.369,27.713S711.565,665.54,716.258,665.54Zm0-54.665c4.124,0,7.608,12.343,7.608,26.952s-3.484,26.952-7.608,26.952-7.608-12.343-7.608-26.952S712.134,610.875,716.258,610.875Z" transform="translate(-577.799 -405.424)" fill="#3f3d56"/>
      <ellipse id="Ellipse_14317" data-name="Ellipse 14317" cx="3.233" cy="6.365" rx="3.233" ry="6.365" transform="translate(134.275 226.038)" fill="#cfcce0"/>
      <path id="Path_16272" data-name="Path 16272" d="M673.81,352.926l-7.989,3.043,1.522,4.185,6.467-2.663Z" transform="translate(-531.166 -218.669)" fill="#3f3d56"/>
      <path id="Path_16273" data-name="Path 16273" d="M605.486,438.926v6.087H582.821V439.33Z" transform="translate(-431.268 -271.954)" fill="#3f3d56"/>
      <path id="Path_16274" data-name="Path 16274" d="M452.486,430.926v6.087H429.821V431.33Z" transform="translate(-220.065 -266.997)" fill="#3f3d56"/>
      <path id="Path_16275" data-name="Path 16275" d="M278.917,107.156H433.982V72.038H278.917Zm154.153-.912H279.829V72.95H433.07Z" transform="translate(-123.968 -72.038)" fill="#3f3d56"/>
      <path id="Path_16276" data-name="Path 16276" d="M302.9,113.06h18.243V94.817H302.895Zm17.331-.912H303.807V95.729h16.419Z" transform="translate(-20.245 -86.152)" fill="#3f3d56"/>
      <rect id="Rectangle_3507" data-name="Rectangle 3507" width="81.181" height="0.912" transform="translate(172.736 12.314)" fill="#3f3d56"/>
      <rect id="Rectangle_3508" data-name="Rectangle 3508" width="81.181" height="0.912" transform="translate(172.736 18.699)" fill="#3f3d56"/>
      <rect id="Rectangle_3509" data-name="Rectangle 3509" width="81.181" height="0.912" transform="translate(172.736 25.084)" fill="#3f3d56"/>
      <path id="Path_16277" data-name="Path 16277" d="M547.777,451.116h.185v-5.066a2.932,2.932,0,0,1,2.932-2.932h10.732a2.932,2.932,0,0,1,2.932,2.932v27.79a2.932,2.932,0,0,1-2.932,2.932H550.894a2.932,2.932,0,0,1-2.932-2.932V454.722h-.185Z" transform="translate(-356.821 -301.956)" fill="#3f3d56"/>
      <ellipse id="Ellipse_14318" data-name="Ellipse 14318" cx="1.796" cy="1.796" rx="1.796" ry="1.796" transform="translate(197.551 148)" fill="#d0cde1"/>
      <path id="Path_16278" data-name="Path 16278" d="M549.866,493.594l35.916-.676s20.055,4.591,17.372-5.44-16.728-2.292-16.728-2.292l-37.688-1.419Z" transform="translate(-396.03 -326.255)" fill="#ffb9b9"/>
      <path id="Path_16279" data-name="Path 16279" d="M646.98,370.972l-3.424-2.663s-5.706-3.043-6.847,7.608-9.51,46.03-1.141,46.41,29.672.761,29.672.761L662.957,411.3l-17.5-1.141Z" transform="translate(-489.5 -255.355)" fill="#004d9f"/>
      <path id="Path_16280" data-name="Path 16280" d="M582.821,346.926l1.141,21.683,16.738,3.424-15.216-6.087Z" transform="translate(-426.482 -214.952)" opacity="0.15"/>
    </g>
    <path id="Path_16137" data-name="Path 16137" d="M830.405,390.919a37.866,37.866,0,0,0-8-5.345c-2.395-1.15-3.275-1.13-4.97.1-1.41,1-2.325,1.965-3.945,1.61s-4.83-2.775-7.935-5.87-5.515-6.285-5.86-7.93.6-2.54,1.615-3.95c1.22-1.7,1.255-2.575.095-4.97a38.345,38.345,0,0,0-5.35-8c-1.755-1.75-2.135-1.365-3.1-1a17.9,17.9,0,0,0-2.835,1.5,8.554,8.554,0,0,0-3.4,3.595c-.685,1.46-1.46,4.17,2.525,11.265a62.845,62.845,0,0,0,11.05,14.735h0a62.938,62.938,0,0,0,14.785,11.07c7.09,4,9.8,3.205,11.265,2.525a8.394,8.394,0,0,0,3.59-3.4,17.666,17.666,0,0,0,1.5-2.835C831.77,393.054,832.16,392.664,830.405,390.919Z" transform="translate(546.402 302.252)" fill="#004d9f"/>
  </g>
</svg>
