<svg xmlns="http://www.w3.org/2000/svg" width="8.112" height="8.111" viewBox="0 0 8.112 8.111">
  <g id="fast-forward-double-right-arrows-symbol" transform="translate(0.001 -0.035)">
    <g id="_x35__11_" transform="translate(-0.001 0.035)">
      <g id="Group_2068" data-name="Group 2068" transform="translate(0 0)">
        <path id="Path_15953" data-name="Path 15953" d="M7.911,3.609,4.537.234a.682.682,0,0,0-.964.964L6.465,4.09,3.573,6.982a.682.682,0,0,0,.964.964L7.911,4.572A.681.681,0,0,0,7.911,3.609ZM3.854,3.4,1.175.581A.665.665,0,0,0,.2.581a.754.754,0,0,0,0,1.027l2.192,2.31L.2,6.228a.754.754,0,0,0,0,1.027.665.665,0,0,0,.974,0L3.854,4.431A.754.754,0,0,0,3.854,3.4Z" transform="translate(0.001 -0.035)" fill="#004d9f"/>
      </g>
    </g>
  </g>
</svg>
