<svg xmlns="http://www.w3.org/2000/svg" width="14.534" height="13.583" viewBox="0 0 14.534 13.583">
  <g id="noun_tick_3968146" transform="translate(0 0.001)">
    <g id="Group_162414" data-name="Group 162414" transform="translate(0 -0.001)">
      <path id="Path_83186" data-name="Path 83186" d="M39.6,4.3a1.01,1.01,0,0,0-1.409-.081c-.966.846-1.812,1.691-2.658,2.577S33.878,8.6,33.093,9.55s-1.53,1.933-2.235,2.939c-.362.5-.685,1.007-1.027,1.53l-2.758-3.4a1.022,1.022,0,0,0-1.329-.2.961.961,0,0,0-.262,1.369L28.986,17a1.548,1.548,0,0,0,.362.362,1.246,1.246,0,0,0,1.711-.383c.322-.584,1.188-2.154,1.812-3.141s1.289-1.953,1.993-2.879c.7-.946,1.45-1.852,2.215-2.738S38.67,6.469,39.5,5.684l.02-.02A.98.98,0,0,0,39.6,4.3Z" transform="translate(-25.302 -3.966)" fill="#004d9f"/>
    </g>
  </g>
</svg>