<svg xmlns="http://www.w3.org/2000/svg" width="21.066" height="19.687" viewBox="0 0 21.066 19.687">
  <g id="noun_tick_3968146" transform="translate(-9.154 -3.966)">
    <g id="Group_162414" data-name="Group 162414" transform="translate(2.5 3.966)">
      <path id="Path_83186" data-name="Path 83186" d="M46.019,4.443a1.463,1.463,0,0,0-2.043-.117c-1.4,1.226-2.626,2.451-3.852,3.735s-2.393,2.626-3.531,4-2.218,2.8-3.239,4.26c-.525.73-.992,1.459-1.488,2.218l-4-4.931a1.481,1.481,0,0,0-1.926-.292,1.393,1.393,0,0,0-.379,1.984l5.077,7.558a2.244,2.244,0,0,0,.525.525,1.807,1.807,0,0,0,2.48-.554c.467-.846,1.722-3.122,2.626-4.552s1.868-2.83,2.889-4.173c1.021-1.371,2.1-2.685,3.21-3.969s2.305-2.539,3.5-3.677l.029-.029A1.421,1.421,0,0,0,46.019,4.443Z" transform="translate(-18.648 -3.966)" fill="#004d9f"/>
    </g>
  </g>
</svg>